 <svg  version="1.0" xmlns="http://www.w3.org/2000/svg"  width="300.000000pt" height="81.000000pt" viewBox="0 0 300.000000 81.000000"  preserveAspectRatio="xMidYMid meet">  <g transform="translate(0.000000,81.000000) scale(0.100000,-0.100000)" fill="#7734ef" stroke="none"> <path d="M256 577 c-102 -58 -106 -217 -6 -284 29 -20 46 -23 131 -23 55 0 102 0 105 0 3 0 6 40 7 90 l2 90 -72 0 c-57 0 -73 -3 -73 -14 0 -25 30 -46 56 -40 22 6 24 4 24 -35 l0 -41 -51 0 c-56 0 -85 12 -111 44 -34 41 -15 153 27 170 9 3 57 6 106 6 l89 0 0 30 0 30 -97 0 c-83 0 -104 -4 -137 -23z"/> <path d="M560 590 c0 -5 9 -19 20 -30 18 -18 33 -20 145 -20 l125 0 0 30 0 30 -145 0 c-90 0 -145 -4 -145 -10z"/> <path d="M910 446 c0 -161 1 -166 48 -181 l23 -7 -3 124 c-3 129 -18 166 -29 68 -5 -49 -6 -45 -7 33 -2 79 0 88 16 85 9 -2 22 -19 29 -41 14 -42 170 -235 241 -297 79 -70 135 -94 220 -95 66 0 76 3 93 24 10 13 19 32 19 43 0 17 -4 19 -27 12 -55 -17 -145 -10 -193 14 -83 44 -80 36 -80 214 l0 158 -35 0 -35 0 0 -127 c1 -115 2 -125 15 -103 16 30 22 18 27 -51 l3 -47 -27 20 c-16 11 -28 25 -29 31 -2 35 -11 53 -51 101 -24 28 -65 80 -93 113 -45 55 -54 62 -87 62 l-38 1 0 -154z"/> <path d="M1330 581 c0 -25 26 -51 51 -51 15 0 19 7 19 35 0 33 -2 35 -35 35 -28 0 -35 -4 -35 -19z"/> <path d="M1470 456 c0 -192 -6 -185 163 -188 l127 -3 0 30 0 30 -110 -3 -110 -4 0 44 0 43 92 0 91 0 1 28 2 27 -93 0 -93 0 0 43 0 42 110 -3 110 -3 0 30 0 31 -145 0 -145 0 0 -144z m60 94 c-12 -23 -16 -24 -26 -8 -4 7 -3 8 4 4 7 -4 12 -1 12 8 0 9 5 16 10 16 7 0 7 -6 0 -20z m8 -103 c10 -8 9 -14 -4 -28 -25 -28 -34 -23 -34 17 0 35 5 37 38 11z"/> <path d="M1820 446 c0 -160 3 -170 45 -178 18 -3 20 3 21 65 l1 69 96 1 96 2 3 -60 c3 -52 6 -61 27 -72 14 -6 29 -10 33 -7 4 3 8 79 8 170 l0 164 -35 0 -35 0 0 -70 0 -70 -97 0 -98 0 3 70 4 70 -36 0 -36 0 0 -154z m300 -13 c0 -45 0 -46 -20 -28 -11 10 -20 23 -20 28 0 9 29 44 38 46 1 1 2 -20 2 -46z m-239 21 c9 -11 10 -20 2 -32 -21 -35 -52 -6 -36 34 7 18 17 18 34 -2z"/> <path d="M2218 478 c4 -137 12 -162 60 -195 54 -35 113 -40 169 -12 76 38 82 54 86 202 l2 127 -32 0 -33 0 0 -111 c0 -109 0 -111 -29 -140 -41 -40 -91 -40 -132 1 l-30 30 3 110 3 110 -35 0 -35 0 3 -122z"/> <path d="M2600 590 c0 -5 9 -19 20 -30 16 -16 33 -20 93 -20 75 0 97 -9 97 -42 0 -25 -31 -38 -89 -38 -48 0 -51 2 -51 25 0 22 -4 25 -35 25 l-35 0 0 -98 c0 -140 2 -142 141 -142 103 0 111 1 134 25 32 31 34 91 5 128 -17 21 -18 30 -9 56 13 38 -2 83 -35 106 -24 18 -236 22 -236 5z m240 -140 c0 -19 -20 -27 -33 -13 -8 7 11 33 24 33 5 0 9 -9 9 -20z m-174 -5 c5 -12 -16 -45 -28 -45 -2 0 -5 14 -6 30 -2 21 2 30 13 30 9 0 18 -7 21 -15z m162 -47 c17 -17 15 -38 -5 -60 -13 -14 -31 -18 -85 -18 l-68 0 0 45 0 45 73 0 c43 0 78 -5 85 -12z"/> <path d="M1330 402 c0 -104 7 -125 48 -135 22 -5 22 -4 22 114 l0 119 -35 0 -35 0 0 -98z"/> <path d="M561 393 c-1 -120 1 -121 159 -125 l130 -3 0 30 0 30 -110 -3 -110 -4 0 52 0 52 91 -3 92 -3 3 27 3 27 -129 0 -128 0 -1 -77z m53 23 c-3 -9 -10 -13 -16 -10 -5 3 -4 12 3 20 15 18 22 13 13 -10z"/> </g> </svg> 