<?xml version="1.0" standalone="no"?>
<!DOCTYPE svg PUBLIC "-//W3C//DTD SVG 20010904//EN"
 "http://www.w3.org/TR/2001/REC-SVG-20010904/DTD/svg10.dtd">
<svg version="1.0" xmlns="http://www.w3.org/2000/svg"
 width="300.000000pt" height="298.000000pt" viewBox="0 0 300.000000 298.000000"
 preserveAspectRatio="xMidYMid meet">
<metadata>
Created by potrace 1.10, written by Peter Selinger 2001-2011
</metadata>
<g transform="translate(0.000000,298.000000) scale(0.100000,-0.100000)"
fill="#cd79f5" stroke="none">
<path d="M1827 2922 c-15 -17 -17 -61 -17 -434 0 -389 1 -416 18 -431 17 -15
59 -17 395 -17 368 0 377 0 398 21 20 20 20 27 17 433 -2 332 -6 416 -17 429
-12 15 -52 17 -396 17 -357 0 -383 -1 -398 -18z m761 -29 c3 -10 -76 -13 -372
-13 -207 0 -376 4 -376 8 0 5 3 12 7 15 4 4 171 6 371 5 282 -2 366 -6 370
-15z m30 -440 l-3 -388 -385 -3 c-353 -2 -386 -1 -397 15 -10 13 -13 107 -13
390 l0 373 400 0 400 0 -2 -387z"/>
<path d="M2230 2660 l0 -160 175 0 175 0 0 160 0 160 -175 0 -175 0 0 -160z
m330 101 c0 -22 3 -46 6 -55 4 -10 -2 -17 -19 -21 -13 -4 -42 -24 -63 -46 -46
-47 -80 -51 -115 -13 -29 32 -82 56 -103 48 -14 -5 -16 4 -16 60 l0 66 155 0
155 0 0 -39z m-200 -162 c45 -37 80 -37 123 1 51 45 69 37 58 -25 l-6 -30
-130 0 -130 0 -3 33 c-7 71 19 77 88 21z"/>
<path d="M2288 2779 c-36 -21 -16 -79 27 -79 46 0 60 48 23 74 -26 19 -27 19
-50 5z m47 -39 c0 -18 -6 -26 -23 -28 -24 -4 -38 18 -28 44 3 9 15 14 28 12
17 -2 23 -10 23 -28z"/>
<path d="M1866 2762 c7 -4 24 -47 39 -96 20 -64 30 -85 38 -77 8 8 5 31 -11
87 -12 41 -20 79 -17 85 4 5 -9 9 -27 9 -18 0 -28 -4 -22 -8z"/>
<path d="M1965 2753 c12 -11 15 -26 11 -47 -4 -21 -3 -26 3 -16 7 10 14 -2 27
-48 10 -34 21 -62 25 -62 16 0 13 37 -9 104 -17 55 -20 71 -10 78 8 5 -2 8
-25 8 -36 0 -37 -1 -22 -17z"/>
<path d="M2058 2763 c26 -5 27 -15 6 -77 -9 -26 -14 -49 -12 -52 3 -2 13 23
23 56 10 34 26 65 34 70 11 7 3 9 -29 8 -25 0 -35 -3 -22 -5z"/>
<path d="M1860 2463 c0 -5 74 -8 165 -8 91 0 165 3 165 8 0 4 -74 7 -165 7
-91 0 -165 -3 -165 -7z"/>
<path d="M2323 2463 c48 -2 126 -2 175 0 48 1 8 3 -88 3 -96 0 -136 -2 -87 -3z"/>
<path d="M1860 2420 c0 -6 62 -10 165 -10 103 0 165 4 165 10 0 6 -62 10 -165
10 -103 0 -165 -4 -165 -10z"/>
<path d="M2240 2420 c0 -6 63 -10 170 -10 107 0 170 4 170 10 0 6 -63 10 -170
10 -107 0 -170 -4 -170 -10z"/>
<path d="M1860 2380 c0 -6 62 -10 165 -10 103 0 165 4 165 10 0 6 -62 10 -165
10 -103 0 -165 -4 -165 -10z"/>
<path d="M2240 2380 c0 -6 64 -10 171 -10 111 0 168 3 164 10 -4 6 -72 10
-171 10 -103 0 -164 -4 -164 -10z"/>
<path d="M1943 2333 c48 -2 125 -2 170 0 45 1 6 3 -88 3 -93 0 -130 -2 -82 -3z"/>
<path d="M2323 2333 c48 -2 126 -2 175 0 48 1 8 3 -88 3 -96 0 -136 -2 -87 -3z"/>
<path d="M1910 2293 c133 -7 280 -7 280 0 0 4 -75 6 -167 5 -93 -1 -143 -3
-113 -5z"/>
<path d="M2242 2294 c3 -3 79 -5 168 -5 89 0 165 2 168 5 3 4 -73 6 -168 6
-95 0 -171 -2 -168 -6z"/>
<path d="M1860 2253 c0 -5 74 -8 165 -8 91 0 165 3 165 8 0 4 -74 7 -165 7
-91 0 -165 -3 -165 -7z"/>
<path d="M2240 2253 c0 -9 328 -8 337 1 4 3 -71 6 -165 6 -95 0 -172 -3 -172
-7z"/>
<path d="M1860 2210 c0 -6 62 -10 165 -10 103 0 165 4 165 10 0 6 -62 10 -165
10 -103 0 -165 -4 -165 -10z"/>
<path d="M2240 2210 c0 -6 64 -10 171 -10 111 0 168 3 164 10 -4 6 -72 10
-171 10 -103 0 -164 -4 -164 -10z"/>
<path d="M2400 2170 l-165 -6 173 -2 c113 -1 171 1 167 8 -3 6 -7 9 -8 8 -1
-1 -76 -5 -167 -8z"/>
<path d="M1943 2163 c48 -2 125 -2 170 0 45 1 6 3 -88 3 -93 0 -130 -2 -82 -3z"/>
<path d="M1933 2123 c48 -2 126 -2 175 0 48 1 8 3 -88 3 -96 0 -136 -2 -87 -3z"/>
<path d="M2323 2123 c48 -2 126 -2 175 0 48 1 8 3 -88 3 -96 0 -136 -2 -87 -3z"/>
<path d="M733 2825 c-23 -16 -23 -20 -23 -216 l0 -199 320 0 320 0 0 193 c0
151 -3 197 -14 213 -14 18 -31 19 -298 22 -246 2 -286 1 -305 -13z m585 -18
c7 -8 12 -77 14 -170 l3 -157 -308 0 -309 0 4 158 c2 86 7 163 12 170 11 18
569 17 584 -1z m-8 -367 c0 -6 -100 -10 -279 -10 -176 0 -282 4 -286 10 -4 7
92 10 279 10 184 0 286 -4 286 -10z"/>
<path d="M971 2704 c-66 -55 -24 -154 64 -154 38 0 85 50 85 90 0 22 -9 41
-29 61 -37 37 -79 38 -120 3z m99 -64 c0 -3 -18 -15 -40 -28 l-40 -23 0 51 0
51 40 -23 c22 -13 40 -25 40 -28z"/>
<path d="M1469 2465 c-35 -19 -55 -68 -42 -98 9 -20 7 -25 -19 -40 -17 -10
-28 -20 -24 -24 3 -3 14 1 25 11 10 9 22 16 27 15 5 -1 20 -1 33 0 22 1 23 2
7 26 -21 32 -20 48 2 68 19 17 68 22 88 9 20 -13 32 -47 27 -74 -3 -18 2 -39
16 -61 12 -19 21 -37 21 -41 0 -13 -33 -5 -63 16 -24 17 -28 18 -18 4 20 -24
65 -46 96 -46 14 0 25 -4 25 -10 0 -13 -46 -13 -73 1 -12 6 -32 21 -44 32 -20
18 -23 18 -23 4 0 -32 54 -78 105 -92 l50 -14 -43 0 c-36 -1 -49 5 -84 37 -34
32 -41 46 -43 78 l-1 39 -49 0 c-45 0 -50 -3 -68 -34 -13 -21 -21 -54 -21 -92
-1 -32 -5 -61 -8 -65 -9 -8 19 -64 32 -64 6 0 10 -6 10 -13 0 -7 14 -26 30
-42 17 -16 30 -32 30 -37 0 -13 -54 -9 -100 7 -67 24 -94 3 -160 -127 -39 -76
-40 -77 -19 -91 l20 -15 -25 -98 c-30 -115 -32 -151 -9 -176 15 -17 13 -18
-70 -18 -51 0 -87 4 -87 10 0 22 -38 7 -102 -41 -69 -50 -79 -67 -54 -89 13
-10 10 -22 -18 -83 -22 -51 -30 -81 -26 -102 4 -27 10 -30 44 -33 l39 -3 -6
-112 c-4 -62 -9 -251 -13 -422 -4 -171 -10 -328 -14 -350 -5 -22 -6 167 -2
419 4 348 2 457 -6 452 -9 -5 -12 -127 -12 -462 0 -428 1 -455 18 -452 16 3
18 33 28 363 l11 360 1 -237 c2 -228 7 -267 32 -242 5 5 11 160 13 344 4 226
3 286 -3 185 -4 -82 -9 -220 -10 -305 -1 -85 -6 -168 -11 -185 -4 -16 -5 117
-2 297 4 241 3 328 -6 328 -6 0 -11 4 -11 10 0 6 64 9 165 9 91 0 169 3 175 6
5 3 10 2 10 -4 0 -15 -74 -51 -103 -51 -15 0 -29 9 -36 23 l-12 22 5 -23 c5
-29 -12 -29 -24 1 -10 22 -10 22 -7 -3 1 -19 9 -26 32 -30 23 -4 31 -11 33
-30 6 -53 53 -279 73 -350 36 -131 38 -142 45 -282 5 -109 9 -138 20 -138 11
0 14 25 14 126 0 124 0 125 22 122 15 -2 26 -13 31 -33 5 -16 13 -38 18 -47 6
-12 2 -35 -11 -68 -25 -64 -25 -85 0 -110 48 -48 74 -5 85 136 6 78 5 95 -10
118 -14 21 -15 29 -5 41 16 20 7 91 -15 115 -13 15 -18 48 -22 173 -8 216 -15
202 104 201 60 -1 118 -7 148 -17 28 -8 64 -18 81 -22 l32 -6 7 -365 c6 -278
10 -364 20 -364 17 0 25 141 25 457 l0 262 43 -15 c54 -19 77 -13 117 33 28
32 32 41 27 80 l-5 43 63 0 63 0 6 -177 c19 -522 18 -513 32 -513 12 0 14 59
14 345 l0 345 25 0 25 0 -2 -462 -1 -463 -9 265 c-4 146 -12 353 -17 460 -9
182 -9 174 -5 -115 2 -170 7 -379 11 -463 5 -133 8 -153 22 -150 15 3 16 46
12 464 l-4 461 22 6 c34 9 26 57 -28 172 -43 92 -53 105 -74 105 -14 0 -27 7
-31 15 -3 8 -12 15 -21 15 -17 0 -20 16 -5 25 25 16 -10 105 -42 105 -5 0 2
-14 16 -31 29 -34 31 -46 12 -71 -20 -27 -41 -23 -22 4 21 30 21 32 -14 71
-57 65 -56 107 2 140 17 10 28 20 25 23 -3 4 -21 -3 -40 -15 -59 -36 -62 -70
-12 -135 19 -26 35 -52 35 -59 0 -23 -47 -60 -70 -54 -13 3 -24 -1 -30 -14 -9
-16 -22 -19 -72 -19 -66 0 -67 10 -3 28 22 7 55 21 74 32 32 20 33 23 29 73
-3 29 -21 93 -42 144 -30 75 -35 96 -25 111 11 18 1 40 -81 169 -24 38 -62 48
-116 29 -87 -30 -118 -17 -69 28 14 13 25 31 25 40 0 9 4 16 10 16 5 0 16 13
24 29 14 26 14 30 0 42 -11 9 -13 23 -9 51 8 44 -24 121 -56 139 -16 8 -18 17
-13 63 6 50 5 54 -26 79 -36 31 -88 35 -131 12z m41 -174 c0 -5 -12 -11 -27
-13 -14 -2 -28 -8 -30 -15 -3 -7 3 -9 16 -6 29 7 26 -1 -14 -54 -28 -37 -36
-42 -41 -29 -4 10 -1 29 6 44 8 15 13 31 11 36 -4 16 32 46 56 46 12 0 23 -4
23 -9z m50 -155 c26 -22 28 -26 17 -50 -7 -14 -15 -26 -19 -26 -5 0 -8 -16 -8
-35 0 -19 -4 -35 -10 -35 -5 0 -10 -4 -10 -10 0 -5 7 -10 15 -10 8 0 15 7 15
15 0 12 7 14 28 9 37 -9 36 -7 7 -43 -33 -38 -60 -39 -97 -4 -33 31 -35 43
-10 43 29 0 55 35 47 62 -12 37 -25 48 -59 47 -20 -1 -24 -3 -11 -6 46 -10 48
-17 5 -22 -25 -3 -48 -2 -52 3 -3 5 7 25 22 45 16 20 37 56 46 80 l18 45 14
-42 c7 -23 26 -52 42 -66z m-156 -56 c7 -24 6 -24 -8 -6 -9 11 -16 27 -16 35
0 21 16 2 24 -29z m285 -2 c-7 -13 -14 -18 -16 -11 -3 7 1 22 8 35 7 13 14 18
16 11 3 -7 -1 -22 -8 -35z m-33 22 c8 0 11 -6 8 -15 -7 -17 -84 -22 -84 -5 0
6 12 10 28 10 22 0 24 2 12 11 -12 9 -12 10 3 5 10 -3 25 -6 33 -6z m-142 -46
c35 -13 4 -54 -41 -54 -20 0 -47 36 -38 50 7 11 55 13 79 4z m136 2 c0 -3 -4
-16 -10 -30 -11 -29 -36 -33 -65 -12 -30 22 -12 46 35 46 22 0 40 -2 40 -4z
m-269 -111 c16 -9 46 -14 65 -13 35 3 37 1 49 -40 12 -40 40 -82 54 -82 20 1
35 25 46 76 12 54 13 56 14 21 1 -21 -6 -53 -13 -72 -12 -29 -20 -35 -45 -35
-33 0 -43 13 -67 84 -12 38 -13 39 -7 6 8 -51 30 -89 59 -102 22 -10 28 -8 51
15 20 20 27 38 31 80 l4 55 47 5 c25 3 61 9 79 12 25 6 38 3 53 -11 27 -24
102 -150 97 -163 -1 -5 -27 -25 -55 -44 l-53 -36 0 81 c0 93 -15 102 -36 20
-8 -29 -21 -66 -29 -82 -10 -20 -12 -30 -4 -30 6 0 8 -7 4 -17 -5 -15 -4 -16
6 -5 7 6 14 22 14 35 2 41 17 97 28 104 7 4 8 -23 4 -87 -4 -51 -8 -95 -10
-96 -2 -2 -97 -4 -212 -4 l-210 -2 -5 154 c-6 151 -6 152 -8 41 -2 -100 -4
-113 -19 -113 -20 0 -123 56 -123 67 0 15 74 140 98 166 29 31 50 34 93 12z
m187 -36 c21 11 21 14 7 -51 -9 -44 -39 -36 -59 15 -21 56 -20 60 8 42 19 -13
29 -14 44 -6z m356 -261 c50 -125 55 -159 26 -186 -21 -20 -99 -52 -125 -52
-23 0 -4 74 27 100 l29 25 -36 73 c-19 41 -35 77 -35 82 0 8 59 49 71 50 3 0
22 -42 43 -92z m-624 23 c-1 -44 -12 -61 -42 -61 l-30 0 7 -97 8 -96 -37 36
c-20 20 -36 41 -36 47 0 6 12 57 26 114 l26 104 39 -16 c23 -9 39 -22 39 -31z
m513 -23 c15 -36 15 -38 -4 -38 -16 0 -19 7 -19 42 0 47 2 47 23 -4z m-483 -3
c0 -25 -4 -35 -16 -35 -11 0 -14 5 -10 16 3 9 6 24 6 35 0 10 5 19 10 19 6 0
10 -16 10 -35z m486 -77 c-7 -39 -26 -253 -26 -285 l0 -23 -259 0 -259 0 -11
133 c-6 72 -13 149 -15 170 l-4 37 289 0 290 0 -5 -32z m30 -46 c-21 -21 -24
-15 -18 38 l5 45 14 -34 c13 -30 12 -36 -1 -49z m-846 -77 c0 -2 -21 -20 -46
-40 -57 -43 -49 -46 11 -5 41 28 49 30 144 30 l100 0 -14 -32 -13 -33 -152 -2
c-102 -1 -149 2 -143 8 10 10 105 77 111 78 1 1 2 -1 2 -4z m248 -53 c2 -7 -3
-12 -12 -12 -9 0 -16 7 -16 16 0 17 22 14 28 -4z m841 8 c8 0 11 -3 7 -7 -4
-4 -24 -6 -44 -5 -20 1 -44 -2 -52 -8 -11 -7 2 -10 48 -10 l62 0 0 -45 c0 -50
-16 -65 -69 -65 -54 0 -61 8 -61 64 0 28 4 56 8 62 9 15 41 23 67 18 11 -2 26
-4 34 -4z m-839 -69 c0 -21 3 -53 6 -70 l7 -31 267 0 267 0 7 38 c3 20 6 52 6
70 l0 32 70 0 70 0 0 -30 c0 -16 5 -30 10 -30 6 0 10 -11 10 -25 0 -35 40 -50
100 -38 l45 8 3 58 c3 49 6 57 23 57 15 0 31 -24 69 -106 27 -59 47 -110 44
-115 -3 -5 -312 -9 -710 -9 -569 0 -706 3 -710 13 -2 7 11 47 30 88 31 66 35
70 36 42 l0 -33 140 0 139 0 21 46 c11 26 20 53 20 60 0 8 7 14 15 14 11 0 15
-11 15 -39z m-358 7 c3 -9 42 -11 141 -9 93 2 137 -1 137 -8 0 -7 -42 -11
-124 -11 -122 0 -176 9 -176 30 0 14 17 13 22 -2z m221 5 c-40 -2 -106 -2
-145 0 -40 1 -8 3 72 3 80 0 112 -2 73 -3z m57 -58 c0 -13 -21 -15 -130 -15
-109 0 -130 2 -130 15 0 13 21 15 130 15 109 0 130 -2 130 -15z m488 -42 c-71
-2 -185 -2 -255 0 -71 1 -13 3 127 3 140 0 198 -2 128 -3z m-296 -157 c6 -11
5 -32 -6 -64 -8 -26 -17 -77 -21 -114 -4 -37 -13 -90 -20 -119 -8 -29 -13 -55
-11 -56 8 -8 26 55 55 192 7 31 9 34 10 13 2 -53 -29 -181 -55 -225 -14 -25
-23 -47 -20 -50 6 -7 44 54 52 85 4 12 10 22 14 22 12 0 -5 -55 -31 -98 -21
-34 -21 -36 -3 -19 27 22 39 22 41 -3 2 -26 -36 -51 -64 -44 -16 4 -29 23 -44
63 -23 61 -57 216 -66 296 -5 47 -3 51 24 67 15 9 42 30 59 46 34 32 71 36 86
8z m118 3 c0 -11 -11 -11 -62 -3 -21 4 -36 9 -34 13 6 10 96 0 96 -10z m472 8
c17 -27 8 -76 -19 -102 -15 -14 -34 -25 -41 -25 -24 0 -173 60 -204 82 -18 13
-34 6 -24 -10 5 -8 73 -38 130 -56 10 -4 17 -9 14 -12 -8 -8 -137 42 -159 62
-12 10 -26 19 -32 19 -14 0 -20 14 -14 35 3 12 32 15 173 17 120 1 171 -2 176
-10z m-388 -19 c-4 -13 -8 -31 -8 -41 0 -14 -6 -16 -31 -11 -41 8 -47 16 -39
48 5 23 11 26 46 26 36 0 39 -2 32 -22z m594 -315 c-1 -318 -1 -327 -9 -158
-15 373 -16 495 -2 495 10 0 13 -67 11 -337z m-700 307 c6 0 12 -9 12 -20 0
-16 -7 -20 -35 -20 -31 0 -35 3 -35 26 0 22 3 25 23 20 12 -3 28 -6 35 -6z
m338 -127 c-3 -8 -6 -166 -6 -350 0 -185 -2 -334 -4 -332 -2 2 -6 163 -10 356
-7 322 -6 352 9 347 9 -4 14 -13 11 -21z m-374 -367 c3 -49 -19 -66 -87 -66
-48 0 -52 2 -67 33 l-16 33 35 -4 c38 -5 123 23 123 40 0 28 9 -2 12 -36z m-2
-113 c0 -35 -21 -39 -46 -7 -25 30 -22 39 11 46 23 5 35 -8 35 -39z m-133 -55
c-2 -18 -4 -4 -4 32 0 36 2 50 4 33 2 -18 2 -48 0 -65z m149 -15 c-15 -134
-13 -129 -52 -125 -38 5 -39 7 -3 86 16 36 16 43 3 57 -13 15 -12 16 11 12 17
-4 27 0 31 11 12 32 16 15 10 -41z m-26 -153 c0 -5 -9 -10 -20 -10 -11 0 -20
5 -20 10 0 6 9 10 20 10 11 0 20 -4 20 -10z"/>
<path d="M1501 2179 c-1 -20 36 -69 52 -69 6 0 -1 12 -15 28 -14 15 -28 34
-31 42 -5 13 -6 12 -6 -1z"/>
<path d="M1356 1895 c-3 -9 -5 -33 -5 -53 l2 -37 6 40 7 40 7 -36 c4 -19 14
-44 22 -55 10 -13 8 0 -6 46 -23 74 -24 77 -33 55z"/>
<path d="M1724 1825 c-12 -36 -18 -65 -14 -65 9 0 45 118 38 125 -2 2 -13 -25
-24 -60z"/>
<path d="M1364 1769 c5 -41 34 -115 42 -106 3 3 0 16 -7 29 -7 12 -18 43 -26
68 -12 41 -13 42 -9 9z"/>
<path d="M1504 1460 c-50 -20 -26 -84 28 -78 39 4 64 37 45 60 -16 21 -47 29
-73 18z m50 -16 c22 -8 20 -31 -4 -44 -34 -18 -78 18 -53 43 8 9 36 9 57 1z"/>
<path d="M1640 1080 c-11 -8 -7 -9 15 -4 37 8 45 14 19 14 -10 0 -26 -5 -34
-10z"/>
<path d="M459 2259 c-6 -3 -8 -62 -7 -135 l3 -129 320 0 320 0 3 128 c2 99 0
129 -11 132 -18 8 -617 11 -628 4z m60 -56 c-10 -12 -10 -15 -1 -9 7 4 19 3
26 -3 10 -8 16 -5 24 14 6 14 16 25 22 25 13 0 13 -9 -2 -24 -7 -8 -20 -23
-28 -35 -17 -25 -42 -27 -60 -6 -10 12 -9 20 5 41 9 14 19 23 22 20 3 -3 0
-13 -8 -23z m529 13 c9 -5 12 -33 10 -94 l-3 -87 -40 -2 c-38 -2 -38 -2 -13 8
19 7 31 21 36 41 8 31 3 114 -5 91 -6 -16 -383 -19 -383 -3 0 6 68 10 185 10
117 0 185 4 185 10 0 8 -118 16 -161 12 -3 -1 -55 -2 -115 -3 -89 -1 -110 1
-112 13 -2 13 27 15 200 14 112 -1 209 -5 216 -10z m-433 -42 c0 -12 -8 -20
-22 -22 -26 -4 -28 1 -12 29 13 24 34 20 34 -7z m410 -34 c4 -7 -60 -10 -184
-10 -121 0 -191 4 -191 10 0 6 68 10 184 10 113 0 187 -4 191 -10z m-395 -40
c0 -19 9 -36 25 -48 16 -13 21 -21 12 -24 -20 -8 -151 -8 -163 0 -12 8 -24 70
-17 88 2 6 32 11 73 11 l70 1 0 -28z m398 6 c3 -4 -81 -6 -186 -6 -106 0 -192
3 -192 8 0 8 369 6 378 -2z m0 -31 c3 -3 -83 -5 -192 -5 -108 0 -195 3 -193 8
6 8 376 6 385 -3z m-218 -43 c0 -5 -13 -7 -30 -4 -16 2 -30 6 -30 8 0 2 14 4
30 4 17 0 30 -4 30 -8z m108 1 c-15 -2 -42 -2 -60 0 -18 2 -6 4 27 4 33 0 48
-2 33 -4z"/>
<path d="M283 2090 c0 -25 2 -35 4 -22 2 12 2 32 0 45 -2 12 -4 2 -4 -23z"/>
<path d="M2193 1865 c-21 -15 -23 -24 -23 -125 0 -109 6 -130 42 -143 9 -3 1
-17 -21 -41 -22 -22 -29 -36 -20 -36 17 0 115 55 124 70 4 6 57 10 131 10 69
0 134 5 145 10 17 10 19 22 19 123 0 62 -5 119 -10 127 -14 23 -356 28 -387 5z
m356 -39 c12 -14 14 -117 4 -163 -5 -22 -9 -23 -114 -23 -77 0 -120 -5 -150
-16 -39 -16 -41 -16 -62 5 -19 18 -22 33 -22 99 1 120 -11 112 173 112 126 0
162 -3 171 -14z"/>
<path d="M2267 1772 c-22 -24 -21 -35 4 -57 17 -16 25 -17 49 -8 18 7 32 7 36
2 7 -12 51 -12 59 1 4 6 15 5 30 -2 49 -22 89 23 56 64 -17 21 -22 22 -50 11
-18 -6 -33 -7 -37 -2 -7 12 -51 12 -59 -1 -4 -7 -12 -7 -25 0 -27 15 -45 12
-63 -8z m50 -13 c16 -16 5 -39 -18 -39 -12 0 -19 7 -19 18 0 31 17 41 37 21z
m91 -12 c4 -20 -25 -34 -40 -19 -15 15 -1 44 19 40 10 -2 19 -11 21 -21z m80
-5 c3 -16 -2 -22 -16 -22 -24 0 -35 23 -19 39 16 16 31 8 35 -17z"/>
<path d="M865 1834 c-119 -60 -85 -246 48 -261 87 -10 157 51 157 137 0 105
-111 172 -205 124z m141 -48 c28 -28 34 -42 34 -76 0 -34 -6 -48 -34 -76 -28
-28 -42 -34 -76 -34 -34 0 -48 6 -76 34 -28 28 -34 42 -34 76 0 34 6 48 34 76
28 28 42 34 76 34 34 0 48 -6 76 -34z"/>
<path d="M920 1750 l0 -50 40 0 c22 0 40 5 40 10 0 6 -13 10 -30 10 -28 0 -30
2 -30 40 0 22 -4 40 -10 40 -5 0 -10 -22 -10 -50z"/>
<path d="M2090 1726 c0 -8 -3 -23 -7 -33 -6 -16 -5 -16 10 -4 18 15 23 51 7
51 -5 0 -10 -6 -10 -14z"/>
<path d="M2020 1575 c0 -14 3 -25 8 -25 4 0 7 11 7 25 0 14 -3 25 -7 25 -5 0
-8 -11 -8 -25z"/>
<path d="M1533 463 c32 -2 81 -2 110 0 29 2 3 3 -58 3 -60 0 -84 -1 -52 -3z"/>
<path d="M1063 443 c15 -2 39 -2 55 0 15 2 2 4 -28 4 -30 0 -43 -2 -27 -4z"/>
<path d="M1933 443 c15 -2 37 -2 50 0 12 2 0 4 -28 4 -27 0 -38 -2 -22 -4z"/>
<path d="M983 433 c9 -2 25 -2 35 0 9 3 1 5 -18 5 -19 0 -27 -2 -17 -5z"/>
<path d="M2028 433 c12 -2 30 -2 40 0 9 3 -1 5 -23 4 -22 0 -30 -2 -17 -4z"/>
<path d="M770 400 c-20 -6 -21 -8 -5 -8 11 0 29 3 40 8 25 11 -1 11 -35 0z"/>
<path d="M2352 370 c69 -21 143 -63 152 -85 15 -41 -50 -84 -182 -121 -34 -10
-60 -19 -58 -21 9 -9 133 31 188 60 81 42 89 82 24 124 -36 23 -146 64 -168
62 -7 0 13 -9 44 -19z"/>
<path d="M635 362 c-139 -59 -149 -115 -31 -170 46 -22 238 -72 270 -71 12 0
-24 11 -79 24 -215 50 -293 99 -247 155 10 11 49 33 87 50 39 16 63 29 55 29
-8 0 -33 -8 -55 -17z"/>
<path d="M940 109 c25 -4 59 -7 75 -7 26 0 25 1 -10 9 -22 4 -56 8 -75 7 -33
0 -32 -1 10 -9z"/>
<path d="M2040 110 c-50 -11 1 -11 60 -1 41 8 42 8 10 8 -19 0 -51 -3 -70 -7z"/>
<path d="M1940 100 l-45 -7 48 -1 c26 -1 47 3 47 8 0 6 -1 9 -2 8 -2 0 -23 -4
-48 -8z"/>
<path d="M1073 93 c15 -2 37 -2 50 0 12 2 0 4 -28 4 -27 0 -38 -2 -22 -4z"/>
<path d="M1218 83 c18 -2 45 -2 60 0 15 2 0 4 -33 4 -33 0 -45 -2 -27 -4z"/>
<path d="M1317 78 c2 -5 91 -7 196 -7 106 1 185 3 177 5 -30 7 -378 9 -373 2z"/>
<path d="M1758 83 c18 -2 45 -2 60 0 15 2 0 4 -33 4 -33 0 -45 -2 -27 -4z"/>
</g>
</svg>
